# xmcd
#
# Track frame offsets:
#	150
#	12846
#	24720
#	37382
#	54277
#	58762
#	76234
#	90796
#	105483
#	116294
#	130417
#	151185
#
# Disc length: 2259 seconds
#
# Revision: 1
# Processed by: cddbd v1.5.2PL0 Copyright (c) Steve Scherf et al.
# Submitted via: audiograbber 1.83.01
#
DISCID=8908d10c
DTITLE=Zeus - Say Us
DYEAR=2010
DGENRE=
TTITLE0=How Does It Feel?
TTITLE1=Fever Of The Time
TTITLE2=Kindergarten
TTITLE3=The Renegade
TTITLE4=Greater Times On The Wayside
TTITLE5=River By The Garden
TTITLE6=You Gotta Tell'er
TTITLE7=I Know
TTITLE8=Marching Through Your Head
TTITLE9=The Sound Of You
TTITLE10=Heavy On Me
TTITLE11=At The Risk Of Repeating
EXTD=
EXTT0=
EXTT1=
EXTT2=
EXTT3=
EXTT4=
EXTT5=
EXTT6=
EXTT7=
EXTT8=
EXTT9=
EXTT10=
EXTT11=
PLAYORDER=
